<svg width="39" height="39" viewBox="0 0 39 39" fill="none" xmlns="http://www.w3.org/2000/svg">
<path d="M2 2H8.36364L12.6273 24.3167C12.7728 25.084 13.1712 25.7733 13.7529 26.2638C14.3346 26.7544 15.0625 27.015 15.8091 27H31.2727C32.0193 27.015 32.7472 26.7544 33.3289 26.2638C33.9106 25.7733 34.3091 25.084 34.4545 24.3167L37 10.3333H9.95455M16.3182 35.3333C16.3182 36.2538 15.6059 37 14.7273 37C13.8486 37 13.1364 36.2538 13.1364 35.3333C13.1364 34.4129 13.8486 33.6667 14.7273 33.6667C15.6059 33.6667 16.3182 34.4129 16.3182 35.3333ZM33.8182 35.3333C33.8182 36.2538 33.1059 37 32.2273 37C31.3486 37 30.6364 36.2538 30.6364 35.3333C30.6364 34.4129 31.3486 33.6667 32.2273 33.6667C33.1059 33.6667 33.8182 34.4129 33.8182 35.3333Z" stroke="white" stroke-width="4" stroke-linecap="round" stroke-linejoin="round"/>
</svg>
